<?xml version="1.0" encoding="UTF-8" standalone="no"?>
<!-- Created with Inkscape (http://www.inkscape.org/) -->

<svg
   xmlns:dc="http://purl.org/dc/elements/1.1/"
   xmlns:cc="http://creativecommons.org/ns#"
   xmlns:rdf="http://www.w3.org/1999/02/22-rdf-syntax-ns#"
   xmlns:svg="http://www.w3.org/2000/svg"
   xmlns="http://www.w3.org/2000/svg"
   xmlns:sodipodi="http://sodipodi.sourceforge.net/DTD/sodipodi-0.dtd"
   xmlns:inkscape="http://www.inkscape.org/namespaces/inkscape"
   width="640"
   height="480"
   viewBox="0 0 169.33333 127"
   version="1.1"
   id="svg8"
   inkscape:version="0.92.4 (5da689c313, 2019-01-14)"
   sodipodi:docname="logo.svg"
   inkscape:export-filename="D:\download\logo.png"
   inkscape:export-xdpi="96"
   inkscape:export-ydpi="96">
  <defs
     id="defs2" />
  <sodipodi:namedview
     id="base"
     pagecolor="#ffffff"
     bordercolor="#666666"
     borderopacity="1.0"
     inkscape:pageopacity="1"
     inkscape:pageshadow="2"
     inkscape:zoom="1"
     inkscape:cx="191.5"
     inkscape:cy="240"
     inkscape:document-units="mm"
     inkscape:current-layer="layer1"
     showgrid="true"
     units="px"
     showguides="false"
     inkscape:window-width="3840"
     inkscape:window-height="2097"
     inkscape:window-x="-8"
     inkscape:window-y="-8"
     inkscape:window-maximized="1"
     scale-x="1"
     inkscape:pagecheckerboard="false">
    <inkscape:grid
       type="xygrid"
       id="grid3725" />
  </sodipodi:namedview>
  <metadata
     id="metadata5">
    <rdf:RDF>
      <cc:Work
         rdf:about="">
        <dc:format>image/svg+xml</dc:format>
        <dc:type
           rdf:resource="http://purl.org/dc/dcmitype/StillImage" />
        <dc:title></dc:title>
      </cc:Work>
    </rdf:RDF>
  </metadata>
  <g
     inkscape:label="Ebene 1"
     inkscape:groupmode="layer"
     id="layer1"
     transform="translate(0,-169.99998)">
    <path
       style="display:inline;fill:#009bf1;fill-opacity:1;fill-rule:evenodd;stroke:#000000;stroke-width:3.16293883;stroke-linecap:butt;stroke-linejoin:miter;stroke-miterlimit:4;stroke-dasharray:none;stroke-opacity:1"
       d="m 32.024844,236.04384 c 16.442642,36.9738 51.190891,35.02511 87.053376,31.65574 L 97.974361,233.40577 124.35417,201.74998 c -44.480191,-5.28065 -80.249763,2.94776 -92.329326,34.29386 z"
       id="path3721"
       inkscape:connector-curvature="0"
       sodipodi:nodetypes="ccccc" />
    <path
       style="display:inline;fill:#009bf1;fill-opacity:1;fill-rule:evenodd;stroke:#000000;stroke-width:3.16293883;stroke-linecap:butt;stroke-linejoin:miter;stroke-miterlimit:4;stroke-dasharray:none;stroke-opacity:1"
       d="M 32.024844,236.04384 C 29.577816,222.52006 19.835032,221.54958 8.2830118,217.5779 c 5.1796482,9.63989 5.2527972,14.08996 5.2759622,21.10387 -0.07039,7.23025 -2.847363,11.60805 -7.9139425,21.10389 9.3551785,-2.86138 22.5402455,-11.84285 26.3798125,-23.74182 z"
       id="path4542"
       inkscape:connector-curvature="0"
       sodipodi:nodetypes="ccccc" />
    <circle
       style="color:#000000;display:inline;overflow:visible;visibility:visible;fill:#000000;fill-opacity:1;fill-rule:nonzero;stroke:none;stroke-width:2.63798022px;stroke-linecap:butt;stroke-linejoin:miter;stroke-opacity:1;marker:none;enable-background:accumulate"
       id="path4544"
       cx="95.642441"
       cy="213.48909"
       r="2.6379802" />
    <path
       style="display:inline;fill:#009bf1;fill-opacity:1;fill-rule:evenodd;stroke:#000000;stroke-width:3.16293883;stroke-linecap:butt;stroke-linejoin:miter;stroke-miterlimit:4;stroke-dasharray:none;stroke-opacity:1"
       d="m 76.870513,201.74998 c -10.8279,-7.67294 -26.433888,-10.61677 -39.56971,-13.1898 7.792607,8.27247 14.411422,16.421 13.189904,23.74182 7.456768,-5.409 18.20079,-9.52066 26.379806,-10.55202 z"
       id="path4546"
       inkscape:connector-curvature="0"
       sodipodi:nodetypes="cccc" />
    <circle
       style="color:#000000;display:inline;overflow:visible;visibility:visible;fill:#000000;fill-opacity:1;fill-rule:nonzero;stroke:none;stroke-width:2.63798022px;stroke-linecap:butt;stroke-linejoin:miter;stroke-opacity:1;marker:none;enable-background:accumulate"
       id="path4611"
       cx="102.95039"
       cy="238.68167"
       r="2.6379802" />
    <circle
       style="color:#000000;display:inline;overflow:visible;visibility:visible;fill:#000000;fill-opacity:1;fill-rule:nonzero;stroke:none;stroke-width:2.63798022px;stroke-linecap:butt;stroke-linejoin:miter;stroke-opacity:1;marker:none;enable-background:accumulate"
       id="path4611-1"
       cx="106.66536"
       cy="244.85741"
       r="2.6379802" />
    <circle
       style="color:#000000;display:inline;overflow:visible;visibility:visible;fill:#000000;fill-opacity:1;fill-rule:nonzero;stroke:none;stroke-width:2.63798022px;stroke-linecap:butt;stroke-linejoin:miter;stroke-opacity:1;marker:none;enable-background:accumulate"
       id="path4611-1-3"
       cx="110.66797"
       cy="250.75789"
       r="2.6379802" />
    <circle
       style="color:#000000;display:inline;overflow:visible;visibility:visible;fill:#000000;fill-opacity:1;fill-rule:nonzero;stroke:none;stroke-width:2.63798022px;stroke-linecap:butt;stroke-linejoin:miter;stroke-opacity:1;marker:none;enable-background:accumulate"
       id="path4611-1-3-7"
       cx="113.53226"
       cy="256.34607"
       r="2.6379802" />
    <circle
       style="color:#000000;display:inline;overflow:visible;visibility:visible;fill:#000000;fill-opacity:1;fill-rule:nonzero;stroke:none;stroke-width:2.63798022px;stroke-linecap:butt;stroke-linejoin:miter;stroke-opacity:1;marker:none;enable-background:accumulate"
       id="path4611-1-3-7-6"
       cx="117.54715"
       cy="261.93427"
       r="2.6379802" />
    <circle
       style="color:#000000;display:inline;overflow:visible;visibility:visible;fill:#000000;fill-opacity:1;fill-rule:nonzero;stroke:none;stroke-width:2.63798022px;stroke-linecap:butt;stroke-linejoin:miter;stroke-opacity:1;marker:none;enable-background:accumulate"
       id="path4611-1-3-7-6-0"
       cx="104.19771"
       cy="228.77281"
       r="2.6379802" />
    <circle
       style="color:#000000;display:inline;overflow:visible;visibility:visible;fill:#000000;fill-opacity:1;fill-rule:nonzero;stroke:none;stroke-width:2.63798022px;stroke-linecap:butt;stroke-linejoin:miter;stroke-opacity:1;marker:none;enable-background:accumulate"
       id="path4611-1-3-7-6-0-0"
       cx="109.06941"
       cy="223.4724"
       r="2.6379802" />
    <circle
       style="color:#000000;display:inline;overflow:visible;visibility:visible;fill:#000000;fill-opacity:1;fill-rule:nonzero;stroke:none;stroke-width:2.63798022px;stroke-linecap:butt;stroke-linejoin:miter;stroke-opacity:1;marker:none;enable-background:accumulate"
       id="path4611-1-3-7-6-0-0-8"
       cx="113.67804"
       cy="217.60278"
       r="2.6379802" />
    <circle
       style="color:#000000;display:inline;overflow:visible;visibility:visible;fill:#000000;fill-opacity:1;fill-rule:nonzero;stroke:none;stroke-width:2.63798022px;stroke-linecap:butt;stroke-linejoin:miter;stroke-opacity:1;marker:none;enable-background:accumulate"
       id="path4611-1-3-7-6-0-0-0"
       cx="117.50343"
       cy="212.02094"
       r="2.6379802" />
    <circle
       style="color:#000000;display:inline;overflow:visible;visibility:visible;fill:#000000;fill-opacity:1;fill-rule:nonzero;stroke:none;stroke-width:2.63798022px;stroke-linecap:butt;stroke-linejoin:miter;stroke-opacity:1;marker:none;enable-background:accumulate"
       id="path4611-1-3-7-6-0-0-0-3"
       cx="122.71806"
       cy="206.73242"
       r="2.6379802" />
    <g
       style="overflow:visible"
       id="g5328"
       transform="matrix(0.51064704,0,0,0.51064704,111.68587,207.61528)">
      <g
         id="g5308"
         style="image-rendering:optimizeQuality;shape-rendering:geometricPrecision;text-rendering:geometricPrecision">
    <path
   id="path5290"
   d="m 84.45,66.836 c -0.636,-0.337 -1.284,-0.624 -1.936,-0.879 l 0.466,-0.038 c 0,0 -4.151,-1.838 -4.514,-15.18 -0.359,-13.344 3.957,-15.62 3.957,-15.62 l -0.62,0.027 C 85.064,33.473 87.869,30.83 89.72,27.342 94.543,18.27 91.092,7.001 82.018,2.177 72.94,-2.641 61.674,0.802 56.854,9.883 54.872,13.608 54.309,17.7 54.935,21.566 L 54.723,21.24 c 0,0 1.093,4.842 -10.258,11.888 -11.349,7.05 -16.469,3.54 -16.469,3.54 l 0.326,0.48 C 27.997,36.947 27.686,36.742 27.347,36.565 18.269,31.741 7,35.188 2.178,44.266 c -4.82,9.077 -1.372,20.341 7.703,25.167 6.766,3.591 14.744,2.59 20.365,-1.914 l -0.122,0.236 c 0,0 4.132,-3.399 16.04,2.994 9.4,5.044 10.796,9.988 10.975,11.846 -0.246,6.893 3.347,13.654 9.847,17.107 9.075,4.825 20.344,1.375 25.164,-7.701 4.824,-9.075 1.378,-20.345 -7.7,-25.165 z m -20.984,2.446 c -1.504,0.532 -5.801,1.121 -14.847,-3.73 -9.797,-5.26 -11.251,-9.654 -11.464,-10.973 0.139,-1.6 0.05,-3.197 -0.223,-4.755 l 0.06,0.09 c 0,0 -0.798,-4.274 10.412,-11.235 10.033,-6.228 14.594,-4.989 15.443,-4.664 0.546,0.371 1.112,0.717 1.706,1.033 1.129,0.6 2.293,1.07 3.472,1.418 1.38,1.314 3.92,5.045 4.184,14.854 0.27,9.883 -2.634,13.694 -4.217,15.042 -1.63,0.738 -3.156,1.723 -4.526,2.92 z"
   inkscape:connector-curvature="0"
   style="fill:#0c479c" />

    <g
   id="g5294">
      <path
   id="path5292"
   d="m 62.239,8.1 c -5.415,5.923 -5.529,14.636 -0.312,19.566 -2.579,-2.483 -2.523,-7.651 0.083,-12.597 0.335,-0.443 1.306,-1.49 2.725,-1.014 0.143,0.049 0.237,0.062 0.292,0.053 0.321,0.069 0.65,0.11 0.99,0.095 2.155,-0.098 3.822,-1.921 3.725,-4.077 C 69.698,9.159 69.297,8.303 68.677,7.646 73.679,4.369 79.419,3.994 81.771,6.142 l 0.09,0.006 C 76.488,1.242 67.705,2.119 62.239,8.1 Z"
   inkscape:connector-curvature="0"
   style="fill:#ffffff" />

    </g>

    <g
   id="g5300">
      <path
   id="path5296"
   d="M 7.632,62.845 C 7.586,62.798 7.539,62.743 7.491,62.697 c 0.03,0.031 0.059,0.069 0.095,0.102 z"
   inkscape:connector-curvature="0"
   style="fill:#ffffff" />

      <path
   id="path5298"
   d="M 7.805,43.13 C 2.389,49.054 2.276,57.765 7.492,62.696 4.914,60.212 4.969,55.044 7.575,50.098 c 0.336,-0.444 1.308,-1.49 2.727,-1.014 0.141,0.049 0.236,0.061 0.292,0.054 0.321,0.069 0.651,0.11 0.99,0.095 2.156,-0.099 3.822,-1.922 3.725,-4.076 -0.045,-0.967 -0.445,-1.824 -1.063,-2.48 4.999,-3.276 10.74,-3.654 13.092,-1.505 l 0.089,0.008 C 22.054,36.271 13.269,37.147 7.805,43.13 Z"
   inkscape:connector-curvature="0"
   style="fill:#ffffff" />

    </g>

    <g
   id="g5306">
      <path
   id="path5302"
   d="m 65.256,92.504 c -0.047,-0.048 -0.094,-0.102 -0.141,-0.148 0.029,0.031 0.059,0.069 0.094,0.101 z"
   inkscape:connector-curvature="0"
   style="fill:#ffffff" />

      <path
   id="path5304"
   d="m 65.428,72.786 c -5.416,5.926 -5.529,14.639 -0.313,19.569 -2.58,-2.483 -2.523,-7.653 0.082,-12.597 0.336,-0.445 1.307,-1.49 2.727,-1.014 0.143,0.047 0.235,0.061 0.292,0.053 0.32,0.069 0.651,0.11 0.99,0.096 2.154,-0.1 3.82,-1.924 3.723,-4.08 -0.044,-0.966 -0.445,-1.822 -1.063,-2.479 5,-3.275 10.739,-3.652 13.093,-1.504 l 0.088,0.007 c -5.37,-4.907 -14.156,-4.03 -19.619,1.949 z"
   inkscape:connector-curvature="0"
   style="fill:#ffffff" />

    </g>

  </g>
    </g>
  </g>
</svg>
